<svg xmlns="http://www.w3.org/2000/svg" xmlns:xlink="http://www.w3.org/1999/xlink" width="304" height="45" version="1.1" viewBox="0 0 304 45"><title>Coz-logo</title><desc>Created with Sketch.</desc><g id="Page-1" fill="none" fill-rule="evenodd" stroke="none" stroke-width="1"><g id="CoZ_CompetitionPage_Registration_S4" fill="#FFF" transform="translate(-568.000000, -74.000000)"><g id="Coz-logo" transform="translate(568.000000, 74.000000)"><g id="CoZ_Logo"><path id="Fill-1" d="M73.7584538,16.5628561 C73.4440019,16.5628561 73.1810888,16.8231019 73.1810888,17.1357853 L73.1810888,29.1148621 C73.1810888,29.4275455 73.4440019,29.6877913 73.7584538,29.6877913 L89.1900826,29.6877913 L89.1900826,32.5 L73.7584538,32.5 C71.8691329,32.5 70.3471074,30.9896679 70.3471074,29.1148621 L70.3471074,17.1357853 C70.3471074,15.2609795 71.8691329,13.75 73.7584538,13.75 L89.1900826,13.75 L89.1900826,16.5628561 L73.7584538,16.5628561 Z"/><polygon id="Fill-3" points="95.471 15.704 97.983 13.75 97.983 32.5 95.471 32.5"/><polygon id="Fill-5" points="123.107 13.75 123.107 16.563 115.099 16.563 115.099 32.5 112.273 32.5 112.273 16.563 104.264 16.563 104.264 13.75"/><polygon id="Fill-7" points="146.975 13.75 138.872 25.469 138.872 32.5 136.236 32.5 136.236 25.469 128.132 13.75 131.232 13.75 137.553 22.292 143.851 13.75"/><path id="Fill-9" d="M181.259233,29.6877913 C181.572817,29.6877913 181.835004,29.4275455 181.835004,29.1142147 L181.835004,17.1351379 C181.835004,16.8224545 181.572817,16.5628561 181.259233,16.5628561 L169.220106,16.5628561 C168.906522,16.5628561 168.644335,16.8224545 168.644335,17.1351379 L168.644335,29.1142147 C168.644335,29.4275455 168.906522,29.6877913 169.220106,29.6877913 L181.259233,29.6877913 Z M181.259233,13.75 C183.143336,13.75 184.661157,15.2603321 184.661157,17.1351379 L184.661157,29.1142147 C184.661157,30.9896679 183.143336,32.5 181.259233,32.5 L169.220106,32.5 C167.336654,32.5 165.818182,30.9896679 165.818182,29.1142147 L165.818182,17.1351379 C165.818182,15.2603321 167.336654,13.75 169.220106,13.75 L181.259233,13.75 Z"/><polygon id="Fill-11" points="207.273 13.75 207.273 16.563 192.564 16.563 192.564 21.719 204.395 21.719 204.395 24.531 192.564 24.531 192.564 32.5 189.686 32.5 189.686 13.75"/><polygon id="Fill-13" points="223.603 13.75 242.446 13.75 242.446 17.083 227.372 29.688 242.446 29.688 242.446 32.5 223.603 32.5 223.603 29.167 238.677 16.563 223.603 16.563"/><polygon id="Fill-15" points="249.983 16.031 252.496 13.75 252.496 32.5 249.983 32.5"/><path id="Fill-17" d="M274.217911,29.6877913 C274.531494,29.6877913 274.793681,29.4275455 274.793681,29.1142147 L274.793681,17.1351379 C274.793681,16.8224545 274.531494,16.5628561 274.217911,16.5628561 L262.178783,16.5628561 C261.8652,16.5628561 261.603013,16.8224545 261.603013,17.1351379 L261.603013,29.1142147 C261.603013,29.4275455 261.8652,29.6877913 262.178783,29.6877913 L274.217911,29.6877913 Z M274.217911,13.75 C276.102013,13.75 277.619835,15.2603321 277.619835,17.1351379 L277.619835,29.1142147 C277.619835,30.9896679 276.102013,32.5 274.217911,32.5 L262.178783,32.5 C260.295331,32.5 258.77686,30.9896679 258.77686,29.1142147 L258.77686,17.1351379 C258.77686,15.2603321 260.295331,13.75 262.178783,13.75 L274.217911,13.75 Z"/><g id="Text" transform="translate(285.157025, 13.750000)"><polygon id="Fill-19" points="15.555 .216 18.284 .216 18.284 18.318 15.05 18.318 2.821 3.837 2.821 18.318 .092 18.318 .092 .216 3.326 .216 15.555 14.698"/></g><g id="Icon"><polygon id="Fill-22" points="51.504 32.143 45.066 38.571 32.19 38.571 45.066 25.714"/><polygon id="Fill-24" points="38.628 19.372 32.71 13.03 38.628 6.688 32.19 .346 25.752 6.688 19.665 0 12.876 6.688 32.19 25.714"/><polygon id="Fill-26" points="6.438 12.857 25.752 32.143 12.876 45 0 45 12.876 32.143 0 19.285"/></g></g></g></g></g></svg>