<svg xmlns="http://www.w3.org/2000/svg" xmlns:xlink="http://www.w3.org/1999/xlink" width="48" height="25" version="1.1" viewBox="0 0 48 25"><title>ICON_Team_Checked</title><desc>Created with Sketch.</desc><g id="Page-1" fill="none" fill-rule="evenodd" stroke="none" stroke-width="1"><g id="CoZ_CompetitionPage_Registration_S2" fill="#4598FF" transform="translate(-728.000000, -2584.000000)"><g id="PANEL_Register-now" transform="translate(231.000000, 2399.000000)"><g id="OPTION_As-a-team" transform="translate(333.000000, 174.000000)"><g id="ICON_Team_Checked" transform="translate(164.000000, 11.000000)"><g id="ICON_Individual" transform="translate(34.000000, 0.000000)"><g id="Group-3" transform="translate(3.000000, 0.000000)"><path id="Fill-1" d="M4.2,0.553776923 C6.29866667,0.553776923 8,2.32054615 8,4.49993077 C8,6.67931538 6.29866667,8.44608462 4.2,8.44608462 C2.10133333,8.44608462 0.4,6.67931538 0.4,4.49993077 C0.4,2.32054615 2.10133333,0.553776923 4.2,0.553776923"/></g><path id="Fill-4" d="M9.78620321,10 L4.14515268,10 C1.83436089,10 0,11.8834081 0,14.103139 L0,24.9327354 L2.44604107,24.9327354 L2.44604107,16.3901345 L3.19365018,16.3901345 L3.19365018,25 L10.8056702,25 L10.8056702,16.3901345 L11.5539589,16.3901345 L11.5539589,25 L14,25 L14,14.1704036 C14,11.8834081 12.096995,10 9.78620321,10"/></g><g id="ICON_Individual" transform="translate(17.000000, 0.000000)"><g id="Group-3" transform="translate(3.000000, 0.000000)"><path id="Fill-1" d="M4.2,0.553776923 C6.29866667,0.553776923 8,2.32054615 8,4.49993077 C8,6.67931538 6.29866667,8.44608462 4.2,8.44608462 C2.10133333,8.44608462 0.4,6.67931538 0.4,4.49993077 C0.4,2.32054615 2.10133333,0.553776923 4.2,0.553776923"/></g><path id="Fill-4" d="M9.78620321,10 L4.14515268,10 C1.83436089,10 0,11.8834081 0,14.103139 L0,24.9327354 L2.44604107,24.9327354 L2.44604107,16.3901345 L3.19365018,16.3901345 L3.19365018,25 L10.8056702,25 L10.8056702,16.3901345 L11.5539589,16.3901345 L11.5539589,25 L14,25 L14,14.1704036 C14,11.8834081 12.096995,10 9.78620321,10"/></g><g id="ICON_Individual"><g id="Group-3" transform="translate(3.000000, 0.000000)"><path id="Fill-1" d="M4.2,0.553776923 C6.29866667,0.553776923 8,2.32054615 8,4.49993077 C8,6.67931538 6.29866667,8.44608462 4.2,8.44608462 C2.10133333,8.44608462 0.4,6.67931538 0.4,4.49993077 C0.4,2.32054615 2.10133333,0.553776923 4.2,0.553776923"/></g><path id="Fill-4" d="M9.78620321,10 L4.14515268,10 C1.83436089,10 0,11.8834081 0,14.103139 L0,24.9327354 L2.44604107,24.9327354 L2.44604107,16.3901345 L3.19365018,16.3901345 L3.19365018,25 L10.8056702,25 L10.8056702,16.3901345 L11.5539589,16.3901345 L11.5539589,25 L14,25 L14,14.1704036 C14,11.8834081 12.096995,10 9.78620321,10"/></g></g></g></g></g></g></svg>