<svg xmlns="http://www.w3.org/2000/svg" xmlns:xlink="http://www.w3.org/1999/xlink" width="1024" height="1024" version="1.1" viewBox="0 0 1024 1024"><title>logo-with-text-white-on-dark-blue</title><desc>Created with Sketch.</desc><defs><polygon id="path-1" points=".941 1.484 56.048 1.484 56.048 56.58 .941 56.58"/><polygon id="path-3" points="0 5.84 78.836 5.84 78.836 104.397 0 104.397"/></defs><g id="logo-with-text-white-on-dark-blue" fill="none" fill-rule="evenodd" stroke="none" stroke-width="1"><rect id="Rectangle" width="1024" height="1024" x="0" y="0" fill="#191C48"/><g id="Page-1" transform="translate(52.000000, 440.000000)"><path id="Fill-1" fill="#FEFEFE" d="M222.698071,50.9210213 C221.778071,50.9210213 221.014667,51.6909504 221.014667,52.6044255 L221.014667,87.8123688 C221.014667,88.7323688 221.778071,89.5022979 222.698071,89.5022979 L267.706298,89.5022979 L267.706298,97.7561986 L222.698071,97.7561986 C217.191121,97.7561986 212.747716,93.325844 212.747716,87.8123688 L212.747716,52.6044255 C212.747716,47.0974752 217.191121,42.6605957 222.698071,42.6605957 L267.706298,42.6605957 L267.706298,50.9210213 L222.698071,50.9210213"/><polygon id="Fill-3" fill="#FEFEFE" points="288.765 48.397 297.031 42.662 297.031 97.758 288.765 97.758"/><polygon id="Fill-5" fill="#FEFEFE" points="370.896 42.659 370.896 50.92 347.478 50.92 347.478 97.755 339.211 97.755 339.211 50.92 315.787 50.92 315.787 42.659"/><polygon id="Fill-7" fill="#FEFEFE" points="446.3 42.659 420.886 77.097 420.886 97.755 412.619 97.755 412.619 77.097 387.212 42.659 396.934 42.659 416.756 67.76 436.5 42.659"/><path id="Fill-9" fill="#FEFEFE" d="M545.131972,89.4996879 C546.051972,89.4996879 546.815376,88.7362837 546.815376,87.8162837 L546.815376,52.6083404 C546.815376,51.6883404 546.051972,50.9184113 545.131972,50.9184113 L509.924028,50.9184113 C509.004028,50.9184113 508.240624,51.6883404 508.240624,52.6083404 L508.240624,87.8162837 C508.240624,88.7362837 509.004028,89.4996879 509.924028,89.4996879 L545.131972,89.4996879 Z M545.131972,42.6579858 C550.638922,42.6579858 555.082326,47.0948652 555.082326,52.6083404 L555.082326,87.8162837 C555.082326,93.323234 550.638922,97.7601135 545.131972,97.7601135 L509.924028,97.7601135 C504.410553,97.7601135 499.973674,93.323234 499.973674,87.8162837 L499.973674,52.6083404 C499.973674,47.0948652 504.410553,42.6579858 509.924028,42.6579858 L545.131972,42.6579858 Z"/><polygon id="Fill-11" fill="#FEFEFE" points="627.195 42.659 627.195 50.92 584.941 50.92 584.941 66.077 618.922 66.077 618.922 74.344 584.941 74.344 584.941 97.755 576.674 97.755 576.674 42.659"/><polygon id="Fill-13" fill="#FEFEFE" points="679.716 42.659 734.824 42.659 734.824 52.453 690.736 89.501 734.824 89.501 734.824 97.755 679.716 97.755 679.716 87.968 723.804 50.92 679.716 50.92"/><polygon id="Fill-15" fill="#FEFEFE" points="756.038 48.143 764.305 41.272 764.305 97.758 756.038 97.758"/><path id="Fill-17" fill="#FEFEFE" d="M830.821986,89.4996879 C831.741986,89.4996879 832.50539,88.7362837 832.50539,87.8162837 L832.50539,52.6083404 C832.50539,51.6883404 831.741986,50.9184113 830.821986,50.9184113 L795.614043,50.9184113 C794.694043,50.9184113 793.930638,51.6883404 793.930638,52.6083404 L793.930638,87.8162837 C793.930638,88.7362837 794.694043,89.4996879 795.614043,89.4996879 L830.821986,89.4996879 Z M830.821986,42.6579858 C836.335461,42.6579858 840.77234,47.0948652 840.77234,52.6083404 L840.77234,87.8162837 C840.77234,93.323234 836.335461,97.7601135 830.821986,97.7601135 L795.614043,97.7601135 C790.107092,97.7601135 785.663688,93.323234 785.663688,87.8162837 L785.663688,52.6083404 C785.663688,47.0948652 790.107092,42.6579858 795.614043,42.6579858 L830.821986,42.6579858 Z"/><g id="Group-21" transform="translate(861.276596, 41.174894)"><mask id="mask-2" fill="#fff"><use xlink:href="#path-1"/></mask><polygon id="Fill-19" fill="#FEFEFE" points="47.783 1.484 56.05 1.484 56.05 56.58 46.256 56.58 9.208 12.505 9.208 56.58 .941 56.58 .941 1.484 10.735 1.484 47.783 45.566" mask="url(#mask-2)"/></g><polygon id="Fill-22" fill="#FEFEFE" points="157.672 99.624 137.961 119.336 98.544 119.336 137.961 79.913"/><polygon id="Fill-24" fill="#FEFEFE" points="118.259 60.201 100.14 40.49 118.259 20.778 98.548 1.067 78.836 20.778 60.201 -.003 39.42 20.778 98.548 79.913"/><g id="Group-28" transform="translate(0.000000, 34.650071)"><mask id="mask-4" fill="#fff"><use xlink:href="#path-3"/></mask><polygon id="Fill-26" fill="#FEFEFE" points="19.708 5.84 78.836 64.974 39.42 104.397 -.003 104.397 39.42 64.974 -.003 25.551" mask="url(#mask-4)"/></g></g></g></svg>