<svg xmlns="http://www.w3.org/2000/svg" xmlns:xlink="http://www.w3.org/1999/xlink" width="1024" height="1024" version="1.1" viewBox="0 0 1024 1024"><title>logo-with-text-dark-blue-on-light-blue</title><desc>Created with Sketch.</desc><defs><polygon id="path-1" points=".961 .523 57.267 .523 57.267 56.83 .961 56.83"/><polygon id="path-3" points=".276 .272 80.503 .272 80.503 81.592 .276 81.592"/><polygon id="path-5" points="0 .483 80.224 .483 80.224 97.708 0 97.708"/><polygon id="path-7" points=".961 .523 57.267 .523 57.267 56.83 .961 56.83"/><polygon id="path-9" points=".276 .272 80.503 .272 80.503 81.592 .276 81.592"/><polygon id="path-11" points="0 .483 80.224 .483 80.224 97.708 0 97.708"/></defs><g id="logo-with-text-dark-blue-on-light-blue" fill="none" fill-rule="evenodd" stroke="none" stroke-width="1"><rect id="Rectangle" width="1024" height="1024" x="0" y="0" fill="#DEE6EB"/><g id="Page-1" transform="translate(52.000000, 441.000000)"><path id="Fill-1" fill="#191C48" d="M221.138905,51.400663 C220.201472,51.400663 219.423602,52.1830452 219.423602,53.1112953 L219.423602,88.8887047 C219.423602,89.8235851 220.201472,90.6059673 221.138905,90.6059673 L267,90.6059673 L267,99 L221.138905,99 C215.527603,99 211,94.4913569 211,88.8887047 L211,53.1112953 C211,47.5152735 215.527603,43 221.138905,43 L267,43 L267,51.400663 L221.138905,51.400663"/><polygon id="Fill-3" fill="#191C48" points="289 48.835 298 43 298 99 289 99"/><polygon id="Fill-5" fill="#191C48" points="371 43 371 51.401 347.204 51.401 347.204 99 338.803 99 338.803 51.401 315 51.401 315 43"/><polygon id="Fill-7" fill="#191C48" points="448 43 422.194 78.002 422.194 99 413.799 99 413.799 78.002 388 43 397.872 43 418 68.514 438.049 43"/><path id="Fill-9" fill="#191C48" d="M545.888705,90.6003315 C546.823585,90.6003315 547.599337,89.8246715 547.599337,88.8832722 L547.599337,53.1100983 C547.599337,52.1819581 546.823585,51.3996685 545.888705,51.3996685 L510.111295,51.3996685 C509.176415,51.3996685 508.400663,52.1819581 508.400663,53.1100983 L508.400663,88.8832722 C508.400663,89.8246715 509.176415,90.6003315 510.111295,90.6003315 L545.888705,90.6003315 Z M545.888705,43 C551.484726,43 556,47.514739 556,53.1100983 L556,88.8832722 C556,94.485261 551.484726,99 545.888705,99 L510.111295,99 C504.508643,99 500,94.485261 500,88.8832722 L500,53.1100983 C500,47.514739 504.508643,43 510.111295,43 L545.888705,43 Z"/><polygon id="Fill-11" fill="#191C48" points="629 43 629 51.401 585.509 51.401 585.509 66.803 620.484 66.803 620.484 75.204 585.509 75.204 585.509 99 577 99 577 43"/><polygon id="Fill-13" fill="#191C48" points="681 43 737 43 737 52.959 692.199 90.606 737 90.606 737 99 681 99 681 89.048 725.801 51.401 681 51.401"/><polygon id="Fill-15" fill="#191C48" points="758 49.811 767 43 767 99 758 99"/><path id="Fill-17" fill="#191C48" d="M833.888705,90.6003315 C834.823585,90.6003315 835.599337,89.8246715 835.599337,88.8832722 L835.599337,53.1100983 C835.599337,52.1819581 834.823585,51.3996685 833.888705,51.3996685 L798.111295,51.3996685 C797.176415,51.3996685 796.400663,52.1819581 796.400663,53.1100983 L796.400663,88.8832722 C796.400663,89.8246715 797.176415,90.6003315 798.111295,90.6003315 L833.888705,90.6003315 Z M833.888705,43 C839.491357,43 844,47.514739 844,53.1100983 L844,88.8832722 C844,94.485261 839.491357,99 833.888705,99 L798.111295,99 C792.515274,99 788,94.485261 788,88.8832722 L788,53.1100983 C788,47.514739 792.515274,43 798.111295,43 L833.888705,43 Z"/><g id="Group-21" transform="translate(862.000000, 44.000000)"><mask id="mask-2" fill="#fff"><use xlink:href="#path-1"/></mask><polygon id="Fill-19" fill="#191C48" points="48.821 .523 57.268 .523 57.268 56.83 47.261 56.83 9.408 11.783 9.408 56.83 .961 56.83 .961 .523 10.968 .523 48.821 45.57" mask="url(#mask-2)"/></g><polygon id="Fill-22" fill="#191C48" points="159 101.5 138.998 121 99 121 138.998 82"/><g id="Group-26" transform="translate(39.000000, 0.000000)"><mask id="mask-4" fill="#fff"><use xlink:href="#path-3"/></mask><polygon id="Fill-24" fill="#191C48" points="80.503 61.533 62.064 41.475 80.503 21.423 60.444 1.364 40.386 21.423 21.423 .269 .276 21.423 60.444 81.592" mask="url(#mask-4)"/></g><g id="Group-29" transform="translate(0.000000, 44.000000)"><mask id="mask-6" fill="#fff"><use xlink:href="#path-5"/></mask><polygon id="Fill-27" fill="#191C48" points="20.055 .483 80.224 58.819 40.114 97.708 -.003 97.708 40.114 58.819 -.003 19.93" mask="url(#mask-6)"/></g><path id="Fill-30" fill="#191C48" d="M221.138905,51.400663 C220.201472,51.400663 219.423602,52.1830452 219.423602,53.1112953 L219.423602,88.8887047 C219.423602,89.8235851 220.201472,90.6059673 221.138905,90.6059673 L267,90.6059673 L267,99 L221.138905,99 C215.527603,99 211,94.4913569 211,88.8887047 L211,53.1112953 C211,47.5152735 215.527603,43 221.138905,43 L267,43 L267,51.400663 L221.138905,51.400663"/><polygon id="Fill-32" fill="#191C48" points="289 48.835 298 43 298 99 289 99"/><polygon id="Fill-34" fill="#191C48" points="371 43 371 51.401 347.204 51.401 347.204 99 338.803 99 338.803 51.401 315 51.401 315 43"/><polygon id="Fill-36" fill="#191C48" points="448 43 422.194 78.002 422.194 99 413.799 99 413.799 78.002 388 43 397.872 43 418 68.514 438.049 43"/><path id="Fill-38" fill="#191C48" d="M545.888705,90.6003315 C546.823585,90.6003315 547.599337,89.8246715 547.599337,88.8832722 L547.599337,53.1100983 C547.599337,52.1819581 546.823585,51.3996685 545.888705,51.3996685 L510.111295,51.3996685 C509.176415,51.3996685 508.400663,52.1819581 508.400663,53.1100983 L508.400663,88.8832722 C508.400663,89.8246715 509.176415,90.6003315 510.111295,90.6003315 L545.888705,90.6003315 Z M545.888705,43 C551.484726,43 556,47.514739 556,53.1100983 L556,88.8832722 C556,94.485261 551.484726,99 545.888705,99 L510.111295,99 C504.508643,99 500,94.485261 500,88.8832722 L500,53.1100983 C500,47.514739 504.508643,43 510.111295,43 L545.888705,43 Z"/><polygon id="Fill-40" fill="#191C48" points="629 43 629 51.401 585.509 51.401 585.509 66.803 620.484 66.803 620.484 75.204 585.509 75.204 585.509 99 577 99 577 43"/><polygon id="Fill-42" fill="#191C48" points="681 43 737 43 737 52.959 692.199 90.606 737 90.606 737 99 681 99 681 89.048 725.801 51.401 681 51.401"/><polygon id="Fill-44" fill="#191C48" points="758 49.811 767 43 767 99 758 99"/><path id="Fill-46" fill="#191C48" d="M833.888705,90.6003315 C834.823585,90.6003315 835.599337,89.8246715 835.599337,88.8832722 L835.599337,53.1100983 C835.599337,52.1819581 834.823585,51.3996685 833.888705,51.3996685 L798.111295,51.3996685 C797.176415,51.3996685 796.400663,52.1819581 796.400663,53.1100983 L796.400663,88.8832722 C796.400663,89.8246715 797.176415,90.6003315 798.111295,90.6003315 L833.888705,90.6003315 Z M833.888705,43 C839.491357,43 844,47.514739 844,53.1100983 L844,88.8832722 C844,94.485261 839.491357,99 833.888705,99 L798.111295,99 C792.515274,99 788,94.485261 788,88.8832722 L788,53.1100983 C788,47.514739 792.515274,43 798.111295,43 L833.888705,43 Z"/><g id="Group-50" transform="translate(862.000000, 44.000000)"><mask id="mask-8" fill="#fff"><use xlink:href="#path-7"/></mask><polygon id="Fill-48" fill="#191C48" points="48.821 .523 57.268 .523 57.268 56.83 47.261 56.83 9.408 11.783 9.408 56.83 .961 56.83 .961 .523 10.968 .523 48.821 45.57" mask="url(#mask-8)"/></g><polygon id="Fill-51" fill="#191C48" points="159 101.5 138.998 121 99 121 138.998 82"/><g id="Group-55" transform="translate(39.000000, 0.000000)"><mask id="mask-10" fill="#fff"><use xlink:href="#path-9"/></mask><polygon id="Fill-53" fill="#191C48" points="80.503 61.533 62.064 41.475 80.503 21.423 60.444 1.364 40.386 21.423 21.423 .269 .276 21.423 60.444 81.592" mask="url(#mask-10)"/></g><g id="Group-58" transform="translate(0.000000, 44.000000)"><mask id="mask-12" fill="#fff"><use xlink:href="#path-11"/></mask><polygon id="Fill-56" fill="#191C48" points="20.055 .483 80.224 58.819 40.114 97.708 -.003 97.708 40.114 58.819 -.003 19.93" mask="url(#mask-12)"/></g></g></g></svg>