<svg xmlns="http://www.w3.org/2000/svg" xmlns:xlink="http://www.w3.org/1999/xlink" width="1024" height="1024" version="1.1" viewBox="0 0 1024 1024"><title>logo-with-text-dark-blue-on-white</title><desc>Created with Sketch.</desc><defs><polygon id="path-1" points=".941 1.497 56.048 1.497 56.048 56.6 .941 56.6"/><polygon id="path-3" points=".271 4.515 79.11 4.515 79.11 84.431 .271 84.431"/><polygon id="path-5" points="0 5.856 78.836 5.856 78.836 104.397 0 104.397"/></defs><g id="logo-with-text-dark-blue-on-white" fill="none" fill-rule="evenodd" stroke="none" stroke-width="1"><rect id="Rectangle" width="1024" height="1024" x="0" y="0" fill="#FFF"/><g id="Page-1" transform="translate(52.000000, 437.000000)"><path id="Fill-1" fill="#191C48" d="M222.698071,57.4360567 C221.778071,57.4360567 221.014667,58.2190355 221.014667,59.1325106 L221.014667,94.3339291 C221.014667,95.2669787 221.778071,96.0238582 222.698071,96.0238582 L267.706298,96.0238582 L267.706298,104.284284 L222.698071,104.284284 C217.191121,104.284284 212.747716,99.8539291 212.747716,94.3339291 L212.747716,59.1325106 C212.747716,53.6125106 217.191121,49.1756312 222.698071,49.1756312 L267.706298,49.1756312 L267.706298,57.4360567 L222.698071,57.4360567"/><polygon id="Fill-3" fill="#191C48" points="288.765 54.926 297.031 49.178 297.031 104.28 288.765 104.28"/><polygon id="Fill-5" fill="#191C48" points="370.896 49.178 370.896 57.439 347.478 57.439 347.478 104.28 339.211 104.28 339.211 57.439 315.787 57.439 315.787 49.178"/><polygon id="Fill-7" fill="#191C48" points="446.3 49.178 420.886 83.616 420.886 104.28 412.619 104.28 412.619 83.616 387.212 49.178 396.934 49.178 416.756 74.279 436.5 49.178"/><path id="Fill-9" fill="#191C48" d="M545.131972,96.0245106 C546.051972,96.0245106 546.815376,95.2676312 546.815376,94.3345816 L546.815376,59.1331631 C546.815376,58.2196879 546.051972,57.4367092 545.131972,57.4367092 L509.924028,57.4367092 C509.004028,57.4367092 508.240624,58.2196879 508.240624,59.1331631 L508.240624,94.3345816 C508.240624,95.2676312 509.004028,96.0245106 509.924028,96.0245106 L545.131972,96.0245106 Z M545.131972,49.1762837 C550.638922,49.1762837 555.082326,53.6131631 555.082326,59.1331631 L555.082326,94.3345816 C555.082326,99.8545816 550.638922,104.284936 545.131972,104.284936 L509.924028,104.284936 C504.410553,104.284936 499.973674,99.8545816 499.973674,94.3345816 L499.973674,59.1331631 C499.973674,53.6131631 504.410553,49.1762837 509.924028,49.1762837 L545.131972,49.1762837 Z"/><polygon id="Fill-11" fill="#191C48" points="627.195 49.178 627.195 57.439 584.941 57.439 584.941 72.602 618.922 72.602 618.922 80.856 584.941 80.856 584.941 104.28 576.674 104.28 576.674 49.178"/><polygon id="Fill-13" fill="#191C48" points="679.716 49.178 734.824 49.178 734.824 58.979 690.736 96.026 734.824 96.026 734.824 104.28 679.716 104.28 679.716 94.48 723.804 57.439 679.716 57.439"/><polygon id="Fill-15" fill="#191C48" points="756.038 54.658 764.305 47.787 764.305 104.279 756.038 104.279"/><path id="Fill-17" fill="#191C48" d="M830.821986,96.0245106 C831.741986,96.0245106 832.50539,95.2676312 832.50539,94.3345816 L832.50539,59.1331631 C832.50539,58.2196879 831.741986,57.4367092 830.821986,57.4367092 L795.614043,57.4367092 C794.694043,57.4367092 793.930638,58.2196879 793.930638,59.1331631 L793.930638,94.3345816 C793.930638,95.2676312 794.694043,96.0245106 795.614043,96.0245106 L830.821986,96.0245106 Z M830.821986,49.1762837 C836.335461,49.1762837 840.77234,53.6131631 840.77234,59.1331631 L840.77234,94.3345816 C840.77234,99.8545816 836.335461,104.284936 830.821986,104.284936 L795.614043,104.284936 C790.107092,104.284936 785.663688,99.8545816 785.663688,94.3345816 L785.663688,59.1331631 C785.663688,53.6131631 790.107092,49.1762837 795.614043,49.1762837 L830.821986,49.1762837 Z"/><g id="Group-21" transform="translate(861.276596, 47.680794)"><mask id="mask-2" fill="#fff"><use xlink:href="#path-1"/></mask><polygon id="Fill-19" fill="#191C48" points="47.783 1.497 56.05 1.497 56.05 56.6 46.256 56.6 9.208 12.511 9.208 56.6 .941 56.6 .941 1.497 10.735 1.497 47.783 45.586" mask="url(#mask-2)"/></g><polygon id="Fill-22" fill="#191C48" points="157.672 106.149 137.961 125.848 98.544 125.848 137.961 86.438"/><g id="Group-26" transform="translate(39.148936, 2.007035)"><mask id="mask-4" fill="#fff"><use xlink:href="#path-3"/></mask><polygon id="Fill-24" fill="#191C48" points="79.11 64.719 60.991 45.008 79.11 25.29 59.399 5.585 39.687 25.29 21.052 4.515 .271 25.29 59.399 84.431" mask="url(#mask-4)"/></g><g id="Group-29" transform="translate(0.000000, 41.155972)"><mask id="mask-6" fill="#fff"><use xlink:href="#path-5"/></mask><polygon id="Fill-27" fill="#191C48" points="19.708 5.856 78.836 64.99 39.42 104.4 -.003 104.4 39.42 64.99 -.003 25.568" mask="url(#mask-6)"/></g></g></g></svg>