<svg xmlns="http://www.w3.org/2000/svg" xmlns:xlink="http://www.w3.org/1999/xlink" width="1024" height="1024" version="1.1" viewBox="0 0 1024 1024"><title>neo-logo-without-text</title><desc>Created with Sketch.</desc><defs><polyline id="path-1" points="292.795 .063 292.795 552.208 .315 415.235 .315 104.379 292.795 .063"/><linearGradient id="linearGradient-3" x1="-21.774%" x2="193.169%" y1="88.629%" y2="-26.699%"><stop offset="0%" stop-color="#B2D238"/><stop offset="22.78%" stop-color="#60BB46"/><stop offset="41.73%" stop-color="#60BB46"/><stop offset="60.53%" stop-color="#44B649"/><stop offset="77.74%" stop-color="#28B34B"/><stop offset="99.43%" stop-color="#0DB14B"/><stop offset="100%" stop-color="#0DB14B"/></linearGradient><polyline id="path-4" points="0 551.11 286.751 685 286.751 134.646 0 .681 0 551.11"/><rect id="path-6" width="1993.016" height="842.341" x=".049" y=".427"/><linearGradient id="linearGradient-8" x1="17.654%" x2="78.599%" y1="69.399%" y2="32.851%"><stop offset="0%" stop-color="#B2D238"/><stop offset="22.78%" stop-color="#60BB46"/><stop offset="41.73%" stop-color="#60BB46"/><stop offset="60.53%" stop-color="#44B649"/><stop offset="77.74%" stop-color="#28B34B"/><stop offset="99.43%" stop-color="#0DB14B"/><stop offset="100%" stop-color="#0DB14B"/></linearGradient><polyline id="path-9" points="690.12 134.645 694.825 132.976 697.424 132.073 415.432 .425 412.835 1.329 405.39 3.97 401.878 5.222 .769 147.78 282.761 279.428 401.878 237.097 408.901 234.597 690.12 134.645"/><linearGradient id="linearGradient-11" x1="-5.17%" x2="171.136%" y1="83.122%" y2="-22.972%"><stop offset="0%" stop-color="#B2D238"/><stop offset="22.78%" stop-color="#60BB46"/><stop offset="41.73%" stop-color="#60BB46"/><stop offset="60.53%" stop-color="#44B649"/><stop offset="77.74%" stop-color="#28B34B"/><stop offset="99.43%" stop-color="#0DB14B"/><stop offset="100%" stop-color="#0DB14B"/></linearGradient></defs><g id="neo-logo-without-text" fill="none" fill-rule="evenodd" stroke="none" stroke-width="1"><g id="Clipped" transform="translate(575.000000, 235.000000)"><mask id="mask-2" fill="#fff"><use xlink:href="#path-1"/></mask><polygon id="Shape" fill="url(#linearGradient-3)" fill-rule="nonzero" points="-237.421 133.031 222.36 -124.128 530.531 419.241 70.75 676.4" mask="url(#mask-2)"/></g><g id="Clipped" transform="translate(156.000000, 248.000000)"><mask id="mask-5" fill="#fff"><use xlink:href="#path-4"/></mask><g mask="url(#mask-5)"><g transform="translate(0.000000, -157.767333)"><mask id="mask-7" fill="#fff"><use xlink:href="#path-6"/></mask><polygon id="Shape" fill="url(#linearGradient-8)" fill-rule="nonzero" stroke="none" points="-363.743 203.28 1513.105 -843.264 2356.856 639.915 480.008 1686.459" mask="url(#mask-7)"/></g></g></g><g id="Clipped" transform="translate(166.000000, 91.000000)"><mask id="mask-10" fill="#fff"><use xlink:href="#path-9"/></mask><polygon id="Shape" fill="url(#linearGradient-11)" fill-rule="nonzero" points="-119.776 67.615 529.656 -294.368 817.968 212.238 168.537 574.221" mask="url(#mask-10)"/></g></g></svg>