<svg xmlns="http://www.w3.org/2000/svg" xmlns:xlink="http://www.w3.org/1999/xlink" width="531" height="1036" version="1.1" viewBox="0 0 531 1036"><title>neo-styleguide</title><desc>Created with Sketch.</desc><g id="neo-styleguide" fill="none" fill-rule="evenodd" stroke="none" stroke-width="1"><rect id="Rectangle" width="531" height="1036" x="0" y="0" fill="#FFF"/><g id="FONTS" transform="translate(51.000000, 695.000000)"><text id="Source-Sans-Pro-Semi" fill="#414550" font-family="SourceSansPro-Semibold, Source Sans Pro" font-size="24" font-weight="500" letter-spacing=".025" line-spacing="62"><tspan x="0" y="24">Source Sans Pro Semibold</tspan></text><text id="实时的区块数量" fill="#141A23" font-family="PingFangSC-Semibold, PingFang SC" font-size="20" font-weight="500" letter-spacing=".111" line-spacing="31"><tspan x=".111" y="67">实时的区块数量</tspan></text><text id="实时的区块数量-copy" fill="#141A23" font-family="PingFangSC-Regular, PingFang SC" font-size="20" font-weight="normal" letter-spacing=".111" line-spacing="31"><tspan x=".111" y="163">实时的区块数量</tspan></text><text id="实时的区块数量-copy-2" fill="#141A23" font-family="PingFangSC-Light, PingFang SC" font-size="20" font-weight="300" letter-spacing=".111" line-spacing="31"><tspan x=".111" y="259">实时的区块数量</tspan></text><text id="Source-Sans-Pro-Regu" fill="#414550" font-family="SourceSansPro-Regular, Source Sans Pro" font-size="24" font-weight="normal" letter-spacing=".025" line-spacing="62"><tspan x="0" y="121">Source Sans Pro Regular</tspan></text><text id="Source-Sans-Pro-Ligh" fill="#414550" font-family="SourceSansPro-Light, Source Sans Pro" font-size="24" font-weight="300" letter-spacing=".025" line-spacing="62"><tspan x="0" y="217">Source Sans Pro Light</tspan></text></g><g id="SECONDARY" transform="translate(51.000000, 417.000000)"><g id="Peach" transform="translate(0.000000, 28.000000)"><rect id="Peach-Darker" width="50" height="50" x="0" y="0" fill="#FFBC39"/><rect id="Peach-Lighter" width="50" height="50" x="50" y="0" fill="#FFE6B7"/></g><g id="Pink" transform="translate(0.000000, 108.000000)"><rect id="Pink-Darker" width="50" height="50" x="0" y="0" fill="#FB6CC5"/><rect id="Pink-Lighter" width="50" height="50" x="50" y="0" fill="#FFC0E7"/></g><g id="Rose" transform="translate(130.000000, 108.000000)"><rect id="Rose-Darker" width="50" height="50" x="0" y="0" fill="#FF657A"/><rect id="Rose-Lighter" width="50" height="50" x="50" y="0" fill="#FFCDD4"/></g><g id="Purple" transform="translate(260.000000, 108.000000)"><rect id="Purple-Darker" width="50" height="50" x="0" y="0" fill="#8F55D5"/><rect id="Purple-Lighter" width="50" height="50" x="50" y="0" fill="#C8AAEC"/></g><g id="Blue" transform="translate(130.000000, 28.000000)"><rect id="Blue-Darker" width="50" height="50" x="0" y="0" fill="#3CBDE8"/><rect id="Blue-Lighter" width="50" height="50" x="50" y="0" fill="#B8E4F3"/></g><g id="Greens" fill="#58BF00" transform="translate(265.000000, 26.000000)"><rect id="Green-Darker" width="50" height="50" x="0" y="0"/><rect id="Green-Lighter" width="50" height="50" x="50" y="0" opacity=".2"/></g><text id="SECONDARY-ACCENT-COL" fill="#8E9196" font-family="SourceSansPro-Semibold, Source Sans Pro" font-size="14" font-weight="500" letter-spacing=".14"><tspan x="0" y="14">SECONDARY ACCENT COLOURS</tspan></text></g><g id="PRIMARY-COLOURS" transform="translate(51.000000, 139.000000)"><g id="White" fill="#FFF" stroke="#D5DBE0" transform="translate(0.000000, 188.000000)"><rect id="Snow" width="50" height="50" x="0" y="0"/></g><g id="NEO-Greens" transform="translate(0.000000, 28.000000)"><rect id="Lime" width="50" height="50" x="0" y="0" fill="#BEEB00"/><rect id="NEO" width="50" height="50" x="50" y="0" fill="#29B800"/><rect id="Grasshopper" width="50" height="50" x="100" y="0" fill="#00A62C"/></g><g id="Asphalt" transform="translate(0.000000, 108.000000)"><rect id="1" width="50" height="50" x="0" y="0" fill="#141A23"/><rect id="2" width="50" height="50" x="50" y="0" fill="#52575E"/><rect id="3" width="50" height="50" x="100" y="0" fill="#878C96"/><rect id="4" width="50" height="50" x="150" y="0" fill="#E1E5E8"/><rect id="5" width="50" height="50" x="200" y="0" fill="#F6F8FB"/></g><text fill="#8E9196" font-family="SourceSansPro-Semibold, Source Sans Pro" font-size="14" font-weight="500" letter-spacing=".14"><tspan x="0" y="14">PRIMARY COLOURS</tspan></text></g><g id="Header"><rect id="Thick-bar" width="531" height="44" x="0" y="0" fill="#29B800"/><rect id="Thin-line" width="531" height="5" x="0" y="44" fill="#00A62C"/><text id="NEO-Quick-Palette-+" fill="#FFF" font-family="OpenSans-Semibold, Open Sans" font-size="16" font-weight="500" letter-spacing=".16"><tspan x="178" y="28">NEO Quick Palette + Fonts</tspan></text><g id="NEO-Logo" fill="#FFF" transform="translate(147.000000, 11.000000)"><polygon id="Fill-1" points="12.096 7.255 12.096 16.297 20.545 20.281 20.545 4.221"/><polygon id="Fill-2" points="0 20.577 8.246 24.466 8.246 8.481 0 4.59"/><polygon id="Fill-3" points="12.285 0 12.21 .026 11.995 .103 11.894 .14 .326 4.294 8.458 8.13 11.894 6.897 12.096 6.824 20.206 3.911 20.342 3.863 20.417 3.836"/></g></g><g id="Section-titles" fill="#414550" font-family="SourceSansPro-Semibold, Source Sans Pro" font-size="30" font-weight="500" letter-spacing=".031" line-spacing="62" transform="translate(50.000000, 78.000000)"><text id="Colours"><tspan x="0" y="30">Colours</tspan></text><text id="Fonts"><tspan x="1" y="575">Fonts</tspan></text></g></g></svg>